<?xml version="1.0" encoding="utf-8"?>
<!-- Generator: Adobe Illustrator 16.0.0, SVG Export Plug-In . SVG Version: 6.00 Build 0)  -->
<!DOCTYPE svg PUBLIC "-//W3C//DTD SVG 1.1//EN" "http://www.w3.org/Graphics/SVG/1.1/DTD/svg11.dtd">
<svg version="1.1" id="logo" xmlns="http://www.w3.org/2000/svg" xmlns:xlink="http://www.w3.org/1999/xlink" x="0px" y="0px"
	 width="100px" height="50px" viewBox="0 0 100 50" enable-background="new 0 0 100 50" xml:space="preserve">
<g>
	<path d="M16.654,17.386h4.131V16.05h2.355v1.336h4.219v-1.354h2.355v1.354h4.131v2.109h-4.131v0.949h-2.355v-0.949h-4.219v1.195
		h-2.355v-1.195h-4.131V17.386z M20.662,30.429c1.043-0.258,2.666-0.668,4.869-1.23c-0.047,1.008-0.064,1.811-0.053,2.408
		c-3.645,0.867-5.824,1.488-6.539,1.863l-1.389-1.898c0.457-0.457,0.686-1.16,0.686-2.109v-8.033
		c6.059-0.293,10.611-0.633,13.658-1.02l0.861,2.162c-1.57,0.141-3.223,0.275-4.957,0.404c0.047,0.75,0.111,1.5,0.193,2.25h5.432
		v2.039h-5.168c0.258,1.547,0.615,2.566,1.072,3.059c0.305,0.387,0.645,0.586,1.02,0.598c0.211,0.012,0.387-0.164,0.527-0.527
		c0.141-0.41,0.322-1.154,0.545-2.232c0.867,0.445,1.623,0.803,2.268,1.072c-0.328,1.254-0.627,2.15-0.896,2.689
		c-0.469,0.926-1.195,1.4-2.18,1.424c-1.43,0.047-2.537-0.451-3.322-1.494c-0.762-1.008-1.289-2.537-1.582-4.588h-5.045V30.429z
		 M25.355,23.151c-1.512,0.082-3.076,0.164-4.693,0.246v1.828h4.834C25.461,24.757,25.414,24.065,25.355,23.151z"/>
	<path d="M35.287,16.63h7.33v5.467h-5.063v11.215h-2.268V16.63z M40.367,18.159h-2.813v0.668h2.813V18.159z M40.367,20.761v-0.668
		h-2.813v0.668H40.367z M38.135,22.8h10.283v1.617h-1.143v4.693c0.422-0.047,0.85-0.094,1.283-0.141
		c-0.035,0.879-0.059,1.453-0.07,1.723c-0.211,0.023-0.615,0.064-1.213,0.123v0.668h0.791c0.621,0,0.932-0.334,0.932-1.002v-8.385
		h-5.08V16.63h7.348v13.781c0,0.996-0.176,1.699-0.527,2.109c-0.352,0.422-0.984,0.662-1.898,0.721
		c-0.305,0.023-1.154,0.041-2.549,0.053c-0.012-0.059-0.059-0.357-0.141-0.896h-0.879v-1.389c-1.629,0.141-3.844,0.328-6.645,0.563
		l-0.193-1.811c0.27-0.012,0.557-0.023,0.861-0.035v-5.309h-1.16V22.8z M41.299,25.085h3.973v-0.668h-3.973V25.085z M41.299,27.159
		h3.973v-0.668h-3.973V27.159z M45.271,29.286v-0.721h-3.973v1.037C42.494,29.521,43.818,29.415,45.271,29.286z M48.998,18.159
		h-2.83v0.668h2.83V18.159z M46.168,20.761h2.83v-0.668h-2.83V20.761z"/>
	<path d="M69.02,27.036h-3.551v1.213h4.324v1.793H59.158l1.301,1.758c-2.684,0.691-4.91,1.23-6.68,1.617
		c-0.258-0.609-0.58-1.301-0.967-2.074c2.297-0.434,4.389-0.867,6.275-1.301h-6.381v-1.793h4.254v-1.213H53.41v-1.74h3.551v-1.107
		h-2.813v-7.33h14.273v7.33h-2.953v1.107h3.551V27.036z M56.504,19.688h3.586v-1.16h-3.586V19.688z M56.504,22.519h3.586v-1.16
		h-3.586V22.519z M59.281,25.296h3.867v-1.107h-3.867V25.296z M59.281,28.249h3.867v-1.213h-3.867V28.249z M63.342,30.06
		c2.824,0.527,4.951,0.955,6.381,1.283l-0.932,2.074c-1.559-0.422-3.768-0.932-6.627-1.529L63.342,30.06z M66.066,18.528H62.48v1.16
		h3.586V18.528z M66.066,22.519v-1.16H62.48v1.16H66.066z"/>
	<path d="M71.674,28.776h6.381V27.95h-7.471v-1.582h7.471V25.56h-6.346v-1.512h6.346v-0.809h-5.836V19.53h5.836v-0.791h-7.348
		v-1.582h7.348v-1.143h2.391v1.143h7.365v1.582h-7.365v0.791h5.871v3.709h-5.871v0.809h6.117v2.32h1.371v1.582h-1.371v3.129h-2.355
		v-0.791h-3.762v0.51c0,0.539-0.103,0.991-0.308,1.358c-0.205,0.365-0.515,0.634-0.927,0.804c-0.414,0.17-0.711,0.257-0.893,0.259
		c-0.182,0.004-1.225,0.005-3.129,0.005c-0.07-0.703-0.188-1.447-0.352-2.232c1.113,0.105,1.869,0.158,2.268,0.158
		c0.621,0,0.938-0.287,0.949-0.861h-6.381V28.776z M74.504,21.833h3.551v-0.896h-3.551V21.833z M84.031,21.833v-0.896h-3.586v0.896
		H84.031z M84.207,25.56h-3.762v0.809h3.762V25.56z M80.445,28.776h3.762V27.95h-3.762V28.776z"/>
</g>
<g>
</g>
<g>
</g>
<g>
</g>
<g>
</g>
<g>
</g>
<g>
</g>
</svg>
